<?xml version="1.0" encoding="UTF-8"?>
<!DOCTYPE svg PUBLIC "-//W3C//DTD SVG 1.1//EN" "http://www.w3.org/Graphics/SVG/1.1/DTD/svg11.dtd">
<svg xmlns="http://www.w3.org/2000/svg" version="1.1" width="561px" height="560px" style="shape-rendering:geometricPrecision; text-rendering:geometricPrecision; image-rendering:optimizeQuality; fill-rule:evenodd; clip-rule:evenodd" xmlns:xlink="http://www.w3.org/1999/xlink">
<g><path style="opacity:1" fill="#fefefe" d="M -0.5,-0.5 C 186.5,-0.5 373.5,-0.5 560.5,-0.5C 560.5,186.167 560.5,372.833 560.5,559.5C 373.5,559.5 186.5,559.5 -0.5,559.5C -0.5,372.833 -0.5,186.167 -0.5,-0.5 Z"/></g>
<g><path style="opacity:1" fill="#ff1e15" d="M 165.5,125.5 C 182.942,123.61 193.275,131.277 196.5,148.5C 193.115,164.605 185.115,177.938 172.5,188.5C 160.983,177.803 153.316,164.803 149.5,149.5C 150.517,138.506 155.85,130.506 165.5,125.5 Z"/></g>
<g><path style="opacity:1" fill="#ff2e25" d="M 170.5,130.5 C 171.5,130.5 172.5,130.5 173.5,130.5C 172.98,134.538 171.147,137.872 168,140.5C 167.504,138.965 167.67,137.465 168.5,136C 168.361,134.699 167.695,133.866 166.5,133.5C 166.694,131.088 168.027,130.088 170.5,130.5 Z"/></g>
<g><path style="opacity:1" fill="#ff8f8d" d="M 184.5,133.5 C 191.308,139.083 193.641,146.083 191.5,154.5C 191.768,152.901 191.434,151.568 190.5,150.5C 190.699,147.059 190.199,143.726 189,140.5C 187.924,137.921 186.091,136.254 183.5,135.5C 183.833,134.833 184.167,134.167 184.5,133.5 Z"/></g>
<g><path style="opacity:1" fill="#ff3126" d="M 166.5,136.5 C 166.573,138.027 165.906,139.027 164.5,139.5C 164.751,141.17 165.418,142.67 166.5,144C 163.066,145.605 160.066,147.772 157.5,150.5C 159.747,154.052 159.081,154.385 155.5,151.5C 154.24,144.661 156.407,138.995 162,134.5C 162.626,136.991 163.459,136.991 164.5,134.5C 165.182,135.243 165.849,135.909 166.5,136.5 Z"/></g>
<g><path style="opacity:1" fill="#ffa2a1" d="M 170.5,129.5 C 170.5,129.833 170.5,130.167 170.5,130.5C 168.027,130.088 166.694,131.088 166.5,133.5C 166.5,134.5 166.5,135.5 166.5,136.5C 165.849,135.909 165.182,135.243 164.5,134.5C 163.459,136.991 162.626,136.991 162,134.5C 156.407,138.995 154.24,144.661 155.5,151.5C 154.662,151.842 154.328,152.508 154.5,153.5C 152.268,140.663 157.601,132.663 170.5,129.5 Z"/></g>
<g><path style="opacity:1" fill="#ffc0bf" d="M 164.5,139.5 C 163.685,140.429 162.852,141.429 162,142.5C 160.041,140.057 160.708,138.39 164,137.5C 164.464,138.094 164.631,138.761 164.5,139.5 Z"/></g>
<g><path style="opacity:1" fill="#ffefee" d="M 170.5,130.5 C 170.5,130.167 170.5,129.833 170.5,129.5C 175.869,128.74 180.535,130.074 184.5,133.5C 184.167,134.167 183.833,134.833 183.5,135.5C 182.518,136.141 181.518,136.807 180.5,137.5C 177.729,136.227 176.062,137.227 175.5,140.5C 176.631,141.604 177.465,141.271 178,139.5C 178.483,140.448 178.649,141.448 178.5,142.5C 176.856,142.714 175.356,142.38 174,141.5C 174.463,144.985 173.629,148.318 171.5,151.5C 171.608,152.442 171.941,153.275 172.5,154C 173.938,154.219 175.271,154.719 176.5,155.5C 177.06,157.854 177.727,160.187 178.5,162.5C 180.806,158.564 183.14,154.564 185.5,150.5C 187.325,149.429 188.492,150.096 189,152.5C 189.717,151.956 190.217,151.289 190.5,150.5C 191.434,151.568 191.768,152.901 191.5,154.5C 185.457,170.196 175.123,174.029 160.5,166C 157.024,162.548 155.024,158.381 154.5,153.5C 154.328,152.508 154.662,151.842 155.5,151.5C 159.081,154.385 159.747,154.052 157.5,150.5C 160.066,147.772 163.066,145.605 166.5,144C 165.418,142.67 164.751,141.17 164.5,139.5C 165.906,139.027 166.573,138.027 166.5,136.5C 166.5,135.5 166.5,134.5 166.5,133.5C 167.695,133.866 168.361,134.699 168.5,136C 167.67,137.465 167.504,138.965 168,140.5C 171.147,137.872 172.98,134.538 173.5,130.5C 172.5,130.5 171.5,130.5 170.5,130.5 Z"/></g>
<g><path style="opacity:1" fill="#ff271c" d="M 183.5,135.5 C 186.091,136.254 187.924,137.921 189,140.5C 190.199,143.726 190.699,147.059 190.5,150.5C 190.217,151.289 189.717,151.956 189,152.5C 188.492,150.096 187.325,149.429 185.5,150.5C 183.14,154.564 180.806,158.564 178.5,162.5C 177.727,160.187 177.06,157.854 176.5,155.5C 175.271,154.719 173.938,154.219 172.5,154C 171.941,153.275 171.608,152.442 171.5,151.5C 173.629,148.318 174.463,144.985 174,141.5C 175.356,142.38 176.856,142.714 178.5,142.5C 178.649,141.448 178.483,140.448 178,139.5C 177.465,141.271 176.631,141.604 175.5,140.5C 176.062,137.227 177.729,136.227 180.5,137.5C 181.518,136.807 182.518,136.141 183.5,135.5 Z"/></g>
<g><path style="opacity:1" fill="#ffb2b1" d="M 175.5,145.5 C 177.423,145.795 179.09,146.628 180.5,148C 177.738,149.077 176.072,148.244 175.5,145.5 Z"/></g>
<g><path style="opacity:1" fill="#ff2c21" d="M 160.5,153.5 C 164.18,153.508 166.847,155.175 168.5,158.5C 167.768,161.197 166.934,163.864 166,166.5C 164.837,164.715 164.17,162.715 164,160.5C 161.341,158.94 160.174,156.607 160.5,153.5 Z"/></g>
<g><path style="opacity:1" fill="#020202" d="M 178.5,208.5 C 181.167,209.167 183.833,209.833 186.5,210.5C 177.626,240.206 171.959,270.54 169.5,301.5C 160.875,298.103 152.709,293.77 145,288.5C 146.361,260.024 149.195,231.691 153.5,203.5C 157.57,204.356 161.57,205.523 165.5,207C 169.77,208.075 174.103,208.575 178.5,208.5 Z"/></g>
<g><path style="opacity:1" fill="#020203" d="M 251.5,203.5 C 272.381,200.532 288.881,207.532 301,224.5C 309.955,240.849 306.455,253.682 290.5,263C 284.632,266.063 278.632,268.73 272.5,271C 280.254,277.043 288.92,281.21 298.5,283.5C 298.649,284.552 298.483,285.552 298,286.5C 291.502,293.335 283.669,298.002 274.5,300.5C 266.743,297.257 260.243,292.257 255,285.5C 252.247,280.992 249.247,276.659 246,272.5C 243.62,277.634 241.62,282.967 240,288.5C 238.213,292.577 236.046,296.41 233.5,300C 230.261,299.554 227.261,298.221 224.5,296C 220,292.833 216.167,289 213,284.5C 211.578,281.97 211.245,279.303 212,276.5C 215.934,264.197 219.768,251.864 223.5,239.5C 220.089,232.119 218.755,224.452 219.5,216.5C 229.15,209.331 239.817,204.997 251.5,203.5 Z"/></g>
<g><path style="opacity:1" fill="#030304" d="M 383.5,203.5 C 385.141,222.83 386.308,242.496 387,262.5C 387.699,269.204 389.199,275.704 391.5,282C 382.021,288.578 372.021,294.412 361.5,299.5C 360.723,292.494 360.056,285.494 359.5,278.5C 350.833,278.5 342.167,278.5 333.5,278.5C 332.068,285.357 330.068,292.023 327.5,298.5C 317.144,293.648 309.144,286.148 303.5,276C 316.486,256.726 324.986,235.559 329,212.5C 341.088,211.07 353.254,209.904 365.5,209C 371.903,208.072 377.903,206.239 383.5,203.5 Z"/></g>
<g><path style="opacity:1" fill="#43bd40" d="M 397.5,207.5 C 403.695,206.345 407.861,208.678 410,214.5C 409.19,231.504 409.524,248.504 411,265.5C 412.049,275.723 413.715,285.723 416,295.5C 414.6,298.902 412.433,301.736 409.5,304C 398.502,311.501 387.168,318.501 375.5,325C 366.689,326.187 362.189,322.353 362,313.5C 363.214,311.951 364.714,310.785 366.5,310C 381.408,305.408 393.908,297.241 404,285.5C 404.667,282.833 404.667,280.167 404,277.5C 400.462,268.161 398.629,258.494 398.5,248.5C 397.615,234.849 397.281,221.182 397.5,207.5 Z"/></g>
<g><path style="opacity:1" fill="#767679" d="M 178.5,208.5 C 181.572,208.183 184.572,208.516 187.5,209.5C 187.376,210.107 187.043,210.44 186.5,210.5C 183.833,209.833 181.167,209.167 178.5,208.5 Z"/></g>
<g><path style="opacity:1" fill="#f2d340" d="M 198.5,211.5 C 205.372,210.652 210.039,213.318 212.5,219.5C 202.97,251.582 196.47,284.248 193,317.5C 190.093,326.036 184.26,328.869 175.5,326C 166.013,321.509 158.013,315.176 151.5,307C 157.887,309.265 164.387,311.431 171,313.5C 176.669,313.836 180.003,311.17 181,305.5C 181.202,296.79 181.869,288.124 183,279.5C 188.065,256.759 193.232,234.093 198.5,211.5 Z"/></g>
<g><path style="opacity:1" fill="#f1f1f1" d="M 354.5,231.5 C 355.117,231.611 355.617,231.944 356,232.5C 357.441,243.457 358.274,254.457 358.5,265.5C 352.132,265.83 345.798,265.496 339.5,264.5C 341.667,258.833 343.833,253.167 346,247.5C 349.101,242.298 351.934,236.965 354.5,231.5 Z"/></g>
<g><path style="opacity:1" fill="#f5f5f5" d="M 259.5,238.5 C 265.842,238.334 272.175,238.5 278.5,239C 279.602,241.401 279.769,243.901 279,246.5C 272.36,257.068 262.86,262.235 250.5,262C 249.524,259.853 249.691,257.686 251,255.5C 253.847,249.807 256.68,244.14 259.5,238.5 Z"/></g>
<g><path style="opacity:1" fill="#45bd41" d="M 249.5,298.5 C 254.236,301.062 258.569,304.229 262.5,308C 257.794,326.224 247.794,329.557 232.5,318C 229.833,315.333 227.167,312.667 224.5,310C 226.807,310.642 229.141,311.642 231.5,313C 235.829,314.151 239.662,313.318 243,310.5C 244.925,306.313 247.092,302.313 249.5,298.5 Z"/></g>
<g><path style="opacity:1" fill="#45bd42" d="M 301.5,298.5 C 308.09,299.745 313.424,303.078 317.5,308.5C 310.665,315.15 302.665,319.983 293.5,323C 289.074,323.791 284.741,323.457 280.5,322C 275.47,318.816 270.804,315.149 266.5,311C 280.909,314.807 292.576,310.64 301.5,298.5 Z"/></g>
<g><path style="opacity:1" fill="#79cf73" d="M 345.5,302.5 C 344.5,302.5 343.5,302.5 342.5,302.5C 342.715,304.179 342.048,305.179 340.5,305.5C 341.831,301.186 343.165,296.852 344.5,292.5C 345.487,295.768 345.82,299.102 345.5,302.5 Z"/></g>
<g><path style="opacity:1" fill="#46be43" d="M 345.5,302.5 C 345.914,306.999 348.081,310.333 352,312.5C 351.624,320.194 347.457,323.694 339.5,323C 332.64,320.733 326.973,316.733 322.5,311C 327.515,311.934 332.515,311.601 337.5,310C 338.883,308.729 339.883,307.229 340.5,305.5C 342.048,305.179 342.715,304.179 342.5,302.5C 343.5,302.5 344.5,302.5 345.5,302.5 Z"/></g>
</svg>
