<?xml version="1.0" encoding="UTF-8"?>
<!DOCTYPE svg PUBLIC "-//W3C//DTD SVG 1.1//EN" "http://www.w3.org/Graphics/SVG/1.1/DTD/svg11.dtd">
<svg xmlns="http://www.w3.org/2000/svg" version="1.1" width="561px" height="560px" style="shape-rendering:geometricPrecision; text-rendering:geometricPrecision; image-rendering:optimizeQuality; fill-rule:evenodd; clip-rule:evenodd" xmlns:xlink="http://www.w3.org/1999/xlink">
<g><path style="opacity:1" fill="#fefefe" d="M -0.5,-0.5 C 186.5,-0.5 373.5,-0.5 560.5,-0.5C 560.5,186.167 560.5,372.833 560.5,559.5C 373.5,559.5 186.5,559.5 -0.5,559.5C -0.5,372.833 -0.5,186.167 -0.5,-0.5 Z"/></g>
<g><path style="opacity:1" fill="#ff1e15" d="M 165.5,125.5 C 182.942,123.61 193.275,131.277 196.5,148.5C 193.115,164.605 185.115,177.938 172.5,188.5C 160.983,177.803 153.316,164.803 149.5,149.5C 150.517,138.506 155.85,130.506 165.5,125.5 Z"/></g>
<g><path style="opacity:1" fill="#ff2e25" d="M 170.5,130.5 C 171.5,130.5 172.5,130.5 173.5,130.5C 172.98,134.538 171.147,137.872 168,140.5C 167.504,138.965 167.67,137.465 168.5,136C 168.361,134.699 167.695,133.866 166.5,133.5C 166.694,131.088 168.027,130.088 170.5,130.5 Z"/></g>
<g><path style="opacity:1" fill="#ff8f8d" d="M 184.5,133.5 C 191.308,139.083 193.641,146.083 191.5,154.5C 191.768,152.901 191.434,151.568 190.5,150.5C 190.699,147.059 190.199,143.726 189,140.5C 187.924,137.921 186.091,136.254 183.5,135.5C 183.833,134.833 184.167,134.167 184.5,133.5 Z"/></g>
<g><path style="opacity:1" fill="#ff3126" d="M 166.5,136.5 C 166.573,138.027 165.906,139.027 164.5,139.5C 164.751,141.17 165.418,142.67 166.5,144C 163.066,145.605 160.066,147.772 157.5,150.5C 159.747,154.052 159.081,154.385 155.5,151.5C 154.24,144.661 156.407,138.995 162,134.5C 162.626,136.991 163.459,136.991 164.5,134.5C 165.182,135.243 165.849,135.909 166.5,136.5 Z"/></g>
<g><path style="opacity:1" fill="#ffa2a1" d="M 170.5,129.5 C 170.5,129.833 170.5,130.167 170.5,130.5C 168.027,130.088 166.694,131.088 166.5,133.5C 166.5,134.5 166.5,135.5 166.5,136.5C 165.849,135.909 165.182,135.243 164.5,134.5C 163.459,136.991 162.626,136.991 162,134.5C 156.407,138.995 154.24,144.661 155.5,151.5C 154.662,151.842 154.328,152.508 154.5,153.5C 152.268,140.663 157.601,132.663 170.5,129.5 Z"/></g>
<g><path style="opacity:1" fill="#ffc0bf" d="M 164.5,139.5 C 163.685,140.429 162.852,141.429 162,142.5C 160.041,140.057 160.708,138.39 164,137.5C 164.464,138.094 164.631,138.761 164.5,139.5 Z"/></g>
<g><path style="opacity:1" fill="#ffefee" d="M 170.5,130.5 C 170.5,130.167 170.5,129.833 170.5,129.5C 175.869,128.74 180.535,130.074 184.5,133.5C 184.167,134.167 183.833,134.833 183.5,135.5C 182.518,136.141 181.518,136.807 180.5,137.5C 177.729,136.227 176.062,137.227 175.5,140.5C 176.631,141.604 177.465,141.271 178,139.5C 178.483,140.448 178.649,141.448 178.5,142.5C 176.856,142.714 175.356,142.38 174,141.5C 174.463,144.985 173.629,148.318 171.5,151.5C 171.608,152.442 171.941,153.275 172.5,154C 173.938,154.219 175.271,154.719 176.5,155.5C 177.06,157.854 177.727,160.187 178.5,162.5C 180.806,158.564 183.14,154.564 185.5,150.5C 187.325,149.429 188.492,150.096 189,152.5C 189.717,151.956 190.217,151.289 190.5,150.5C 191.434,151.568 191.768,152.901 191.5,154.5C 185.457,170.196 175.123,174.029 160.5,166C 157.024,162.548 155.024,158.381 154.5,153.5C 154.328,152.508 154.662,151.842 155.5,151.5C 159.081,154.385 159.747,154.052 157.5,150.5C 160.066,147.772 163.066,145.605 166.5,144C 165.418,142.67 164.751,141.17 164.5,139.5C 165.906,139.027 166.573,138.027 166.5,136.5C 166.5,135.5 166.5,134.5 166.5,133.5C 167.695,133.866 168.361,134.699 168.5,136C 167.67,137.465 167.504,138.965 168,140.5C 171.147,137.872 172.98,134.538 173.5,130.5C 172.5,130.5 171.5,130.5 170.5,130.5 Z"/></g>
<g><path style="opacity:1" fill="#ff271c" d="M 183.5,135.5 C 186.091,136.254 187.924,137.921 189,140.5C 190.199,143.726 190.699,147.059 190.5,150.5C 190.217,151.289 189.717,151.956 189,152.5C 188.492,150.096 187.325,149.429 185.5,150.5C 183.14,154.564 180.806,158.564 178.5,162.5C 177.727,160.187 177.06,157.854 176.5,155.5C 175.271,154.719 173.938,154.219 172.5,154C 171.941,153.275 171.608,152.442 171.5,151.5C 173.629,148.318 174.463,144.985 174,141.5C 175.356,142.38 176.856,142.714 178.5,142.5C 178.649,141.448 178.483,140.448 178,139.5C 177.465,141.271 176.631,141.604 175.5,140.5C 176.062,137.227 177.729,136.227 180.5,137.5C 181.518,136.807 182.518,136.141 183.5,135.5 Z"/></g>
<g><path style="opacity:1" fill="#ffb2b1" d="M 175.5,145.5 C 177.423,145.795 179.09,146.628 180.5,148C 177.738,149.077 176.072,148.244 175.5,145.5 Z"/></g>
<g><path style="opacity:1" fill="#ff2c21" d="M 160.5,153.5 C 164.18,153.508 166.847,155.175 168.5,158.5C 167.768,161.197 166.934,163.864 166,166.5C 164.837,164.715 164.17,162.715 164,160.5C 161.341,158.94 160.174,156.607 160.5,153.5 Z"/></g>
<g><path style="opacity:1" fill="#020202" d="M 178.5,208.5 C 181.167,209.167 183.833,209.833 186.5,210.5C 177.626,240.206 171.959,270.54 169.5,301.5C 160.875,298.103 152.709,293.77 145,288.5C 146.361,260.024 149.195,231.691 153.5,203.5C 157.57,204.356 161.57,205.523 165.5,207C 169.77,208.075 174.103,208.575 178.5,208.5 Z"/></g>
<g><path style="opacity:1" fill="#020203" d="M 251.5,203.5 C 272.381,200.532 288.881,207.532 301,224.5C 309.955,240.849 306.455,253.682 290.5,263C 284.632,266.063 278.632,268.73 272.5,271C 280.254,277.043 288.92,281.21 298.5,283.5C 298.649,284.552 298.483,285.552 298,286.5C 291.502,293.335 283.669,298.002 274.5,300.5C 266.743,297.257 260.243,292.257 255,285.5C 252.247,280.992 249.247,276.659 246,272.5C 243.62,277.634 241.62,282.967 240,288.5C 238.213,292.577 236.046,296.41 233.5,300C 230.261,299.554 227.261,298.221 224.5,296C 220,292.833 216.167,289 213,284.5C 211.578,281.97 211.245,279.303 212,276.5C 215.934,264.197 219.768,251.864 223.5,239.5C 220.089,232.119 218.755,224.452 219.5,216.5C 229.15,209.331 239.817,204.997 251.5,203.5 Z"/></g>
<g><path style="opacity:1" fill="#030304" d="M 383.5,203.5 C 385.141,222.83 386.308,242.496 387,262.5C 387.699,269.204 389.199,275.704 391.5,282C 382.021,288.578 372.021,294.412 361.5,299.5C 360.723,292.494 360.056,285.494 359.5,278.5C 350.833,278.5 342.167,278.5 333.5,278.5C 332.068,285.357 330.068,292.023 327.5,298.5C 317.144,293.648 309.144,286.148 303.5,276C 316.486,256.726 324.986,235.559 329,212.5C 341.088,211.07 353.254,209.904 365.5,209C 371.903,208.072 377.903,206.239 383.5,203.5 Z"/></g>
<g><path style="opacity:1" fill="#43bd40" d="M 397.5,207.5 C 403.695,206.345 407.861,208.678 410,214.5C 409.19,231.504 409.524,248.504 411,265.5C 412.049,275.723 413.715,285.723 416,295.5C 414.6,298.902 412.433,301.736 409.5,304C 398.502,311.501 387.168,318.501 375.5,325C 366.689,326.187 362.189,322.353 362,313.5C 363.214,311.951 364.714,310.785 366.5,310C 381.408,305.408 393.908,297.241 404,285.5C 404.667,282.833 404.667,280.167 404,277.5C 400.462,268.161 398.629,258.494 398.5,248.5C 397.615,234.849 397.281,221.182 397.5,207.5 Z"/></g>
<g><path style="opacity:1" fill="#767679" d="M 178.5,208.5 C 181.572,208.183 184.572,208.516 187.5,209.5C 187.376,210.107 187.043,210.44 186.5,210.5C 183.833,209.833 181.167,209.167 178.5,208.5 Z"/></g>
<g><path style="opacity:1" fill="#f2d340" d="M 198.5,211.5 C 205.372,210.652 210.039,213.318 212.5,219.5C 202.97,251.582 196.47,284.248 193,317.5C 190.093,326.036 184.26,328.869 175.5,326C 166.013,321.509 158.013,315.176 151.5,307C 157.887,309.265 164.387,311.431 171,313.5C 176.669,313.836 180.003,311.17 181,305.5C 181.202,296.79 181.869,288.124 183,279.5C 188.065,256.759 193.232,234.093 198.5,211.5 Z"/></g>
<g><path style="opacity:1" fill="#f1f1f1" d="M 354.5,231.5 C 355.117,231.611 355.617,231.944 356,232.5C 357.441,243.457 358.274,254.457 358.5,265.5C 352.132,265.83 345.798,265.496 339.5,264.5C 341.667,258.833 343.833,253.167 346,247.5C 349.101,242.298 351.934,236.965 354.5,231.5 Z"/></g>
<g><path style="opacity:1" fill="#f5f5f5" d="M 259.5,238.5 C 265.842,238.334 272.175,238.5 278.5,239C 279.602,241.401 279.769,243.901 279,246.5C 272.36,257.068 262.86,262.235 250.5,262C 249.524,259.853 249.691,257.686 251,255.5C 253.847,249.807 256.68,244.14 259.5,238.5 Z"/></g>
<g><path style="opacity:1" fill="#45bd41" d="M 249.5,298.5 C 254.236,301.062 258.569,304.229 262.5,308C 257.794,326.224 247.794,329.557 232.5,318C 229.833,315.333 227.167,312.667 224.5,310C 226.807,310.642 229.141,311.642 231.5,313C 235.829,314.151 239.662,313.318 243,310.5C 244.925,306.313 247.092,302.313 249.5,298.5 Z"/></g>
<g><path style="opacity:1" fill="#45bd42" d="M 301.5,298.5 C 308.09,299.745 313.424,303.078 317.5,308.5C 310.665,315.15 302.665,319.983 293.5,323C 289.074,323.791 284.741,323.457 280.5,322C 275.47,318.816 270.804,315.149 266.5,311C 280.909,314.807 292.576,310.64 301.5,298.5 Z"/></g>
<g><path style="opacity:1" fill="#79cf73" d="M 345.5,302.5 C 344.5,302.5 343.5,302.5 342.5,302.5C 342.715,304.179 342.048,305.179 340.5,305.5C 341.831,301.186 343.165,296.852 344.5,292.5C 345.487,295.768 345.82,299.102 345.5,302.5 Z"/></g>
<g><path style="opacity:1" fill="#46be43" d="M 345.5,302.5 C 345.914,306.999 348.081,310.333 352,312.5C 351.624,320.194 347.457,323.694 339.5,323C 332.64,320.733 326.973,316.733 322.5,311C 327.515,311.934 332.515,311.601 337.5,310C 338.883,308.729 339.883,307.229 340.5,305.5C 342.048,305.179 342.715,304.179 342.5,302.5C 343.5,302.5 344.5,302.5 345.5,302.5 Z"/></g>
<g><path style="opacity:1" fill="#141414" d="M 127.5,355.5 C 130.976,354.357 134.642,354.19 138.5,355C 139.869,357.239 139.369,359.073 137,360.5C 137.209,356.541 135.375,354.874 131.5,355.5C 130.772,359.31 130.105,363.143 129.5,367C 129.559,368.436 129.892,369.769 130.5,371C 128.5,371.667 126.5,371.667 124.5,371C 125.667,370.5 126.5,369.667 127,368.5C 127.554,365.342 128.054,362.175 128.5,359C 128.486,357.615 128.152,356.449 127.5,355.5 Z"/></g>
<g><path style="opacity:1" fill="#131313" d="M 145.5,355.5 C 147.288,354.378 149.288,354.211 151.5,355C 150.151,355.772 149.318,356.939 149,358.5C 148.5,361.5 148,364.5 147.5,367.5C 147.709,368.994 148.376,370.161 149.5,371C 147.167,371.667 144.833,371.667 142.5,371C 144.993,369.675 146.16,367.509 146,364.5C 146.805,361.304 146.638,358.304 145.5,355.5 Z"/></g>
<g><path style="opacity:1" fill="#101010" d="M 170.5,366.5 C 170.167,366.5 169.833,366.5 169.5,366.5C 172.718,357.719 169.718,354.052 160.5,355.5C 159.276,360.109 158.776,364.776 159,369.5C 160.356,370.38 161.856,370.714 163.5,370.5C 163.5,370.833 163.5,371.167 163.5,371.5C 160.15,371.665 156.817,371.498 153.5,371C 154.416,370.626 155.25,370.126 156,369.5C 156.578,365.279 157.411,361.112 158.5,357C 158.095,356.055 157.428,355.388 156.5,355C 161.618,354.112 166.618,354.445 171.5,356C 173.883,359.674 173.55,363.174 170.5,366.5 Z"/></g>
<g><path style="opacity:1" fill="#1b1b1b" d="M 179.5,355.5 C 182.962,354.518 186.629,354.185 190.5,354.5C 190.719,355.675 190.386,356.675 189.5,357.5C 187.827,355.914 185.827,355.247 183.5,355.5C 183.5,357.833 183.5,360.167 183.5,362.5C 184.873,362.343 186.207,362.51 187.5,363C 182.115,362.687 180.115,365.187 181.5,370.5C 185.182,371.275 187.682,369.941 189,366.5C 189.265,368.163 188.765,369.663 187.5,371C 183.833,371.667 180.167,371.667 176.5,371C 177.416,370.626 178.25,370.126 179,369.5C 180.366,364.698 180.533,360.032 179.5,355.5 Z"/></g>
<g><path style="opacity:1" fill="#161616" d="M 205.5,355.5 C 208.976,354.357 212.642,354.19 216.5,355C 217.869,357.239 217.369,359.073 215,360.5C 215.209,356.541 213.375,354.874 209.5,355.5C 209.167,357.5 208.833,359.5 208.5,361.5C 212.271,360.774 214.937,362.107 216.5,365.5C 216.297,367.208 215.464,368.541 214,369.5C 213.667,367.5 213.333,365.5 213,363.5C 211.612,362.446 210.112,362.28 208.5,363C 207.565,365.381 207.232,367.881 207.5,370.5C 209.044,371.728 207.377,371.894 202.5,371C 203.416,370.626 204.25,370.126 205,369.5C 205.5,366 206,362.5 206.5,359C 206.486,357.615 206.152,356.449 205.5,355.5 Z"/></g>
<g><path style="opacity:1" fill="#1b1b1b" d="M 223.5,355.5 C 226.962,354.518 230.629,354.185 234.5,354.5C 234.719,355.675 234.386,356.675 233.5,357.5C 231.827,355.914 229.827,355.247 227.5,355.5C 227.5,357.833 227.5,360.167 227.5,362.5C 228.873,362.343 230.207,362.51 231.5,363C 226.115,362.687 224.115,365.187 225.5,370.5C 229.182,371.275 231.682,369.941 233,366.5C 233.265,368.163 232.765,369.663 231.5,371C 227.833,371.667 224.167,371.667 220.5,371C 221.416,370.626 222.25,370.126 223,369.5C 224.366,364.698 224.533,360.032 223.5,355.5 Z"/></g>
<g><path style="opacity:1" fill="#0d0d0d" d="M 239.5,355.5 C 240.568,354.566 241.901,354.232 243.5,354.5C 243.596,357.956 244.596,361.123 246.5,364C 244.941,366.642 245.275,368.975 247.5,371C 245.167,371.667 242.833,371.667 240.5,371C 242.91,370.242 243.91,368.575 243.5,366C 243.217,361.968 241.884,358.468 239.5,355.5 Z"/></g>
<g><path style="opacity:1" fill="#2b2b2b" d="M 248.5,355.5 C 250.628,354.371 252.961,354.204 255.5,355C 252.781,356.597 250.614,358.763 249,361.5C 248.885,359.893 249.385,358.393 250.5,357C 250.164,355.97 249.497,355.47 248.5,355.5 Z"/></g>
<g><path style="opacity:1" fill="#161616" d="M 292.5,365.5 C 292.842,366.338 293.508,366.672 294.5,366.5C 294.291,367.922 293.791,369.255 293,370.5C 290.143,366.102 287.309,361.768 284.5,357.5C 284.167,356.5 283.5,355.833 282.5,355.5C 283.001,354.249 284.335,354.249 286.5,355.5C 288.511,358.861 290.511,362.194 292.5,365.5 Z"/></g>
<g><path style="opacity:1" fill="#141414" d="M 296.5,358.5 C 295.833,357.833 295.167,357.167 294.5,356.5C 294.389,355.883 294.056,355.383 293.5,355C 295.5,354.333 297.5,354.333 299.5,355C 297.574,355.422 296.574,356.589 296.5,358.5 Z"/></g>
<g><path style="opacity:1" fill="#101010" d="M 317.5,366.5 C 317.167,366.5 316.833,366.5 316.5,366.5C 319.718,357.719 316.718,354.052 307.5,355.5C 306.276,360.109 305.776,364.776 306,369.5C 307.356,370.38 308.856,370.714 310.5,370.5C 310.5,370.833 310.5,371.167 310.5,371.5C 307.15,371.665 303.817,371.498 300.5,371C 301.416,370.626 302.25,370.126 303,369.5C 303.578,365.279 304.411,361.112 305.5,357C 305.095,356.055 304.428,355.388 303.5,355C 308.618,354.112 313.618,354.445 318.5,356C 320.883,359.674 320.55,363.174 317.5,366.5 Z"/></g>
<g><path style="opacity:1" fill="#161616" d="M 335.5,355.5 C 338.976,354.357 342.642,354.19 346.5,355C 347.869,357.239 347.369,359.073 345,360.5C 345.209,356.541 343.375,354.874 339.5,355.5C 339.167,357.5 338.833,359.5 338.5,361.5C 342.271,360.774 344.937,362.107 346.5,365.5C 346.297,367.208 345.464,368.541 344,369.5C 343.667,367.5 343.333,365.5 343,363.5C 341.612,362.446 340.112,362.28 338.5,363C 337.565,365.381 337.232,367.881 337.5,370.5C 339.044,371.728 337.377,371.894 332.5,371C 333.416,370.626 334.25,370.126 335,369.5C 335.5,366 336,362.5 336.5,359C 336.486,357.615 336.152,356.449 335.5,355.5 Z"/></g>
<g><path style="opacity:1" fill="#212121" d="M 359.5,355.5 C 362.684,354.216 365.85,354.549 369,356.5C 370.953,360.035 370.619,363.369 368,366.5C 369.499,359.501 366.665,355.834 359.5,355.5 Z"/></g>
<g><path style="opacity:1" fill="#161616" d="M 380.5,362.5 C 379.545,364.283 378.878,366.283 378.5,368.5C 378.818,369.647 379.484,370.481 380.5,371C 378.167,371.667 375.833,371.667 373.5,371C 374.416,370.626 375.25,370.126 376,369.5C 376.769,365.486 377.603,361.486 378.5,357.5C 378.182,356.353 377.516,355.519 376.5,355C 380.167,354.333 383.833,354.333 387.5,355C 388.983,357.573 388.483,359.74 386,361.5C 386.592,357.102 384.759,355.102 380.5,355.5C 380.5,357.833 380.5,360.167 380.5,362.5 Z"/></g>
<g><path style="opacity:1" fill="#161616" d="M 394.5,355.5 C 399.739,354.14 405.072,354.307 410.5,356C 411.985,360.567 411.151,364.734 408,368.5C 407.282,369.451 406.449,369.617 405.5,369C 408.979,364.855 409.312,360.522 406.5,356C 404.167,355.333 401.833,355.333 399.5,356C 398.179,360.069 397.179,364.236 396.5,368.5C 397.714,370.069 399.381,370.902 401.5,371C 398.5,371.667 395.5,371.667 392.5,371C 394.893,367.24 396.226,363.073 396.5,358.5C 396.36,356.97 395.693,355.97 394.5,355.5 Z"/></g>
<g><path style="opacity:1" fill="#1b1b1b" d="M 417.5,355.5 C 420.962,354.518 424.629,354.185 428.5,354.5C 428.719,355.675 428.386,356.675 427.5,357.5C 425.827,355.914 423.827,355.247 421.5,355.5C 421.5,357.833 421.5,360.167 421.5,362.5C 422.873,362.343 424.207,362.51 425.5,363C 420.115,362.687 418.115,365.187 419.5,370.5C 423.182,371.275 425.682,369.941 427,366.5C 427.265,368.163 426.765,369.663 425.5,371C 421.833,371.667 418.167,371.667 414.5,371C 415.416,370.626 416.25,370.126 417,369.5C 418.366,364.698 418.533,360.032 417.5,355.5 Z"/></g>
<g><path style="opacity:1" fill="#141414" d="M 433.5,355.5 C 436.976,354.357 440.642,354.19 444.5,355C 445.869,357.239 445.369,359.073 443,360.5C 443.209,356.541 441.375,354.874 437.5,355.5C 436.772,359.31 436.105,363.143 435.5,367C 435.559,368.436 435.892,369.769 436.5,371C 434.5,371.667 432.5,371.667 430.5,371C 431.667,370.5 432.5,369.667 433,368.5C 433.554,365.342 434.054,362.175 434.5,359C 434.486,357.615 434.152,356.449 433.5,355.5 Z"/></g>
<g><path style="opacity:1" fill="#f2f2f2" d="M 169.5,366.5 C 167.772,368.226 165.772,369.559 163.5,370.5C 161.856,370.714 160.356,370.38 159,369.5C 158.776,364.776 159.276,360.109 160.5,355.5C 169.718,354.052 172.718,357.719 169.5,366.5 Z"/></g>
<g><path style="opacity:1" fill="#171717" d="M 269.5,356.5 C 271.153,355.201 272.653,355.534 274,357.5C 274.996,361.207 274.33,364.541 272,367.5C 272.422,364.902 272.422,362.236 272,359.5C 271.623,358.058 270.79,357.058 269.5,356.5 Z"/></g>
<g><path style="opacity:1" fill="#f2f2f2" d="M 316.5,366.5 C 314.772,368.226 312.772,369.559 310.5,370.5C 308.856,370.714 307.356,370.38 306,369.5C 305.776,364.776 306.276,360.109 307.5,355.5C 316.718,354.052 319.718,357.719 316.5,366.5 Z"/></g>
<g><path style="opacity:1" fill="#0b0b0b" d="M 456.5,355.5 C 459.994,354.165 461.16,355.499 460,359.5C 459.943,357.09 458.776,355.756 456.5,355.5 Z"/></g>
<g><path style="opacity:1" fill="#717171" d="M 294.5,356.5 C 295.167,357.167 295.833,357.833 296.5,358.5C 295.833,361.167 295.167,363.833 294.5,366.5C 293.508,366.672 292.842,366.338 292.5,365.5C 294.118,362.829 294.785,359.829 294.5,356.5 Z"/></g>
<g><path style="opacity:1" fill="#242424" d="M 452.5,356.5 C 454.063,359.901 456.563,362.568 460,364.5C 460.722,366.661 460.055,368.328 458,369.5C 457.544,365.706 455.544,363.039 452,361.5C 451.36,359.735 451.527,358.068 452.5,356.5 Z"/></g>
<g><path style="opacity:1" fill="#1c1c1c" d="M 257.5,360.5 C 257.612,365.797 260.278,369.297 265.5,371C 257.702,371.602 255.035,368.102 257.5,360.5 Z"/></g>
<g><path style="opacity:1" fill="#111111" d="M 131.5,362.5 C 132.5,362.5 133.5,362.5 134.5,362.5C 134.77,366.213 136.436,369.046 139.5,371C 137.888,371.72 136.388,371.554 135,370.5C 133.546,367.929 132.38,365.262 131.5,362.5 Z"/></g>
<g><path style="opacity:1" fill="#868686" d="M 282.5,355.5 C 283.5,355.833 284.167,356.5 284.5,357.5C 283.732,359.715 283.065,362.048 282.5,364.5C 282.167,364.5 281.833,364.5 281.5,364.5C 281.963,361.518 282.296,358.518 282.5,355.5 Z"/></g>
<g><path style="opacity:1" fill="#111111" d="M 353.5,359.5 C 354.317,361.969 354.817,364.635 355,367.5C 356.319,369.487 358.152,370.654 360.5,371C 357.503,371.755 355.003,370.922 353,368.5C 352.366,365.445 352.532,362.445 353.5,359.5 Z"/></g>
<g><path style="opacity:1" fill="#131313" d="M 380.5,362.5 C 381.675,362.281 382.675,362.614 383.5,363.5C 384.547,366.43 386.213,368.93 388.5,371C 386.888,371.72 385.388,371.554 384,370.5C 383.094,367.69 381.927,365.024 380.5,362.5 Z"/></g>
<g><path style="opacity:1" fill="#111111" d="M 437.5,362.5 C 438.5,362.5 439.5,362.5 440.5,362.5C 440.77,366.213 442.436,369.046 445.5,371C 443.888,371.72 442.388,371.554 441,370.5C 439.546,367.929 438.38,365.262 437.5,362.5 Z"/></g>
<g><path style="opacity:1" fill="#272727" d="M 449.5,365.5 C 450.22,368.06 451.887,369.893 454.5,371C 452.866,371.494 451.199,371.66 449.5,371.5C 449.5,369.5 449.5,367.5 449.5,365.5 Z"/></g>
<g><path style="opacity:1" fill="#777777" d="M 169.5,366.5 C 169.833,366.5 170.167,366.5 170.5,366.5C 169.008,369.323 166.674,370.99 163.5,371.5C 163.5,371.167 163.5,370.833 163.5,370.5C 165.772,369.559 167.772,368.226 169.5,366.5 Z"/></g>
<g><path style="opacity:1" fill="#191919" d="M 281.5,364.5 C 281.833,364.5 282.167,364.5 282.5,364.5C 282.244,366.792 282.577,368.959 283.5,371C 281.833,371.667 280.167,371.667 278.5,371C 280.451,369.266 281.451,367.099 281.5,364.5 Z"/></g>
<g><path style="opacity:1" fill="#777777" d="M 316.5,366.5 C 316.833,366.5 317.167,366.5 317.5,366.5C 316.008,369.323 313.674,370.99 310.5,371.5C 310.5,371.167 310.5,370.833 310.5,370.5C 312.772,369.559 314.772,368.226 316.5,366.5 Z"/></g>
</svg>
