<?xml version="1.0" encoding="UTF-8"?>
<!DOCTYPE svg PUBLIC "-//W3C//DTD SVG 1.1//EN" "http://www.w3.org/Graphics/SVG/1.1/DTD/svg11.dtd">
<svg xmlns="http://www.w3.org/2000/svg" version="1.1" width="561px" height="560px" style="shape-rendering:geometricPrecision; text-rendering:geometricPrecision; image-rendering:optimizeQuality; fill-rule:evenodd; clip-rule:evenodd" xmlns:xlink="http://www.w3.org/1999/xlink">
<g><path style="opacity:1" fill="#fefefe" d="M -0.5,-0.5 C 186.5,-0.5 373.5,-0.5 560.5,-0.5C 560.5,113.833 560.5,228.167 560.5,342.5C 373.5,342.5 186.5,342.5 -0.5,342.5C -0.5,228.167 -0.5,113.833 -0.5,-0.5 Z"/></g>
<g><path style="opacity:1" fill="#ff1e15" d="M 165.5,125.5 C 182.942,123.61 193.275,131.277 196.5,148.5C 193.115,164.605 185.115,177.938 172.5,188.5C 160.983,177.803 153.316,164.803 149.5,149.5C 150.517,138.506 155.85,130.506 165.5,125.5 Z"/></g>
<g><path style="opacity:1" fill="#ff2e25" d="M 170.5,130.5 C 171.5,130.5 172.5,130.5 173.5,130.5C 172.98,134.538 171.147,137.872 168,140.5C 167.504,138.965 167.67,137.465 168.5,136C 168.361,134.699 167.695,133.866 166.5,133.5C 166.694,131.088 168.027,130.088 170.5,130.5 Z"/></g>
<g><path style="opacity:1" fill="#ff8f8d" d="M 184.5,133.5 C 191.308,139.083 193.641,146.083 191.5,154.5C 191.768,152.901 191.434,151.568 190.5,150.5C 190.699,147.059 190.199,143.726 189,140.5C 187.924,137.921 186.091,136.254 183.5,135.5C 183.833,134.833 184.167,134.167 184.5,133.5 Z"/></g>
<g><path style="opacity:1" fill="#ff3126" d="M 166.5,136.5 C 166.573,138.027 165.906,139.027 164.5,139.5C 164.751,141.17 165.418,142.67 166.5,144C 163.066,145.605 160.066,147.772 157.5,150.5C 159.747,154.052 159.081,154.385 155.5,151.5C 154.24,144.661 156.407,138.995 162,134.5C 162.626,136.991 163.459,136.991 164.5,134.5C 165.182,135.243 165.849,135.909 166.5,136.5 Z"/></g>
<g><path style="opacity:1" fill="#ffa2a1" d="M 170.5,129.5 C 170.5,129.833 170.5,130.167 170.5,130.5C 168.027,130.088 166.694,131.088 166.5,133.5C 166.5,134.5 166.5,135.5 166.5,136.5C 165.849,135.909 165.182,135.243 164.5,134.5C 163.459,136.991 162.626,136.991 162,134.5C 156.407,138.995 154.24,144.661 155.5,151.5C 154.662,151.842 154.328,152.508 154.5,153.5C 152.268,140.663 157.601,132.663 170.5,129.5 Z"/></g>
<g><path style="opacity:1" fill="#ffc0bf" d="M 164.5,139.5 C 163.685,140.429 162.852,141.429 162,142.5C 160.041,140.057 160.708,138.39 164,137.5C 164.464,138.094 164.631,138.761 164.5,139.5 Z"/></g>
<g><path style="opacity:1" fill="#ffefee" d="M 170.5,130.5 C 170.5,130.167 170.5,129.833 170.5,129.5C 175.869,128.74 180.535,130.074 184.5,133.5C 184.167,134.167 183.833,134.833 183.5,135.5C 182.518,136.141 181.518,136.807 180.5,137.5C 177.729,136.227 176.062,137.227 175.5,140.5C 176.631,141.604 177.465,141.271 178,139.5C 178.483,140.448 178.649,141.448 178.5,142.5C 176.856,142.714 175.356,142.38 174,141.5C 174.463,144.985 173.629,148.318 171.5,151.5C 171.608,152.442 171.941,153.275 172.5,154C 173.938,154.219 175.271,154.719 176.5,155.5C 177.06,157.854 177.727,160.187 178.5,162.5C 180.806,158.564 183.14,154.564 185.5,150.5C 187.325,149.429 188.492,150.096 189,152.5C 189.717,151.956 190.217,151.289 190.5,150.5C 191.434,151.568 191.768,152.901 191.5,154.5C 185.457,170.196 175.123,174.029 160.5,166C 157.024,162.548 155.024,158.381 154.5,153.5C 154.328,152.508 154.662,151.842 155.5,151.5C 159.081,154.385 159.747,154.052 157.5,150.5C 160.066,147.772 163.066,145.605 166.5,144C 165.418,142.67 164.751,141.17 164.5,139.5C 165.906,139.027 166.573,138.027 166.5,136.5C 166.5,135.5 166.5,134.5 166.5,133.5C 167.695,133.866 168.361,134.699 168.5,136C 167.67,137.465 167.504,138.965 168,140.5C 171.147,137.872 172.98,134.538 173.5,130.5C 172.5,130.5 171.5,130.5 170.5,130.5 Z"/></g>
<g><path style="opacity:1" fill="#ff271c" d="M 183.5,135.5 C 186.091,136.254 187.924,137.921 189,140.5C 190.199,143.726 190.699,147.059 190.5,150.5C 190.217,151.289 189.717,151.956 189,152.5C 188.492,150.096 187.325,149.429 185.5,150.5C 183.14,154.564 180.806,158.564 178.5,162.5C 177.727,160.187 177.06,157.854 176.5,155.5C 175.271,154.719 173.938,154.219 172.5,154C 171.941,153.275 171.608,152.442 171.5,151.5C 173.629,148.318 174.463,144.985 174,141.5C 175.356,142.38 176.856,142.714 178.5,142.5C 178.649,141.448 178.483,140.448 178,139.5C 177.465,141.271 176.631,141.604 175.5,140.5C 176.062,137.227 177.729,136.227 180.5,137.5C 181.518,136.807 182.518,136.141 183.5,135.5 Z"/></g>
<g><path style="opacity:1" fill="#ffb2b1" d="M 175.5,145.5 C 177.423,145.795 179.09,146.628 180.5,148C 177.738,149.077 176.072,148.244 175.5,145.5 Z"/></g>
<g><path style="opacity:1" fill="#ff2c21" d="M 160.5,153.5 C 164.18,153.508 166.847,155.175 168.5,158.5C 167.768,161.197 166.934,163.864 166,166.5C 164.837,164.715 164.17,162.715 164,160.5C 161.341,158.94 160.174,156.607 160.5,153.5 Z"/></g>
<g><path style="opacity:1" fill="#020202" d="M 178.5,208.5 C 181.167,209.167 183.833,209.833 186.5,210.5C 177.626,240.206 171.959,270.54 169.5,301.5C 160.875,298.103 152.709,293.77 145,288.5C 146.361,260.024 149.195,231.691 153.5,203.5C 157.57,204.356 161.57,205.523 165.5,207C 169.77,208.075 174.103,208.575 178.5,208.5 Z"/></g>
<g><path style="opacity:1" fill="#020203" d="M 251.5,203.5 C 272.381,200.532 288.881,207.532 301,224.5C 309.955,240.849 306.455,253.682 290.5,263C 284.632,266.063 278.632,268.73 272.5,271C 280.254,277.043 288.92,281.21 298.5,283.5C 298.649,284.552 298.483,285.552 298,286.5C 291.502,293.335 283.669,298.002 274.5,300.5C 266.743,297.257 260.243,292.257 255,285.5C 252.247,280.992 249.247,276.659 246,272.5C 243.62,277.634 241.62,282.967 240,288.5C 238.213,292.577 236.046,296.41 233.5,300C 230.261,299.554 227.261,298.221 224.5,296C 220,292.833 216.167,289 213,284.5C 211.578,281.97 211.245,279.303 212,276.5C 215.934,264.197 219.768,251.864 223.5,239.5C 220.089,232.119 218.755,224.452 219.5,216.5C 229.15,209.331 239.817,204.997 251.5,203.5 Z"/></g>
<g><path style="opacity:1" fill="#030303" d="M 383.5,203.5 C 385.141,222.83 386.308,242.496 387,262.5C 387.699,269.204 389.199,275.704 391.5,282C 382.021,288.578 372.021,294.412 361.5,299.5C 360.723,292.494 360.056,285.494 359.5,278.5C 350.833,278.5 342.167,278.5 333.5,278.5C 332.068,285.357 330.068,292.023 327.5,298.5C 317.144,293.648 309.144,286.148 303.5,276C 316.486,256.726 324.986,235.559 329,212.5C 341.088,211.07 353.254,209.904 365.5,209C 371.903,208.072 377.903,206.239 383.5,203.5 Z"/></g>
<g><path style="opacity:1" fill="#43bd40" d="M 397.5,207.5 C 403.695,206.345 407.861,208.678 410,214.5C 409.19,231.504 409.524,248.504 411,265.5C 412.049,275.723 413.715,285.723 416,295.5C 414.6,298.902 412.433,301.736 409.5,304C 398.502,311.501 387.168,318.501 375.5,325C 366.689,326.187 362.189,322.353 362,313.5C 363.214,311.951 364.714,310.785 366.5,310C 381.408,305.408 393.908,297.241 404,285.5C 404.667,282.833 404.667,280.167 404,277.5C 400.462,268.161 398.629,258.494 398.5,248.5C 397.615,234.849 397.281,221.182 397.5,207.5 Z"/></g>
<g><path style="opacity:1" fill="#767679" d="M 178.5,208.5 C 181.572,208.183 184.572,208.516 187.5,209.5C 187.376,210.107 187.043,210.44 186.5,210.5C 183.833,209.833 181.167,209.167 178.5,208.5 Z"/></g>
<g><path style="opacity:1" fill="#f2d340" d="M 198.5,211.5 C 205.372,210.652 210.039,213.318 212.5,219.5C 202.97,251.582 196.47,284.248 193,317.5C 190.093,326.036 184.26,328.869 175.5,326C 166.013,321.509 158.013,315.176 151.5,307C 157.887,309.265 164.387,311.431 171,313.5C 176.669,313.836 180.003,311.17 181,305.5C 181.202,296.79 181.869,288.124 183,279.5C 188.065,256.759 193.232,234.093 198.5,211.5 Z"/></g>
<g><path style="opacity:1" fill="#f1f1f1" d="M 354.5,231.5 C 356.13,233.026 356.963,235.026 357,237.5C 358.088,246.817 358.421,256.15 358,265.5C 352.25,266.641 346.416,266.807 340.5,266C 340.043,265.586 339.709,265.086 339.5,264.5C 343.155,252.858 348.155,241.858 354.5,231.5 Z"/></g>
<g><path style="opacity:1" fill="#f9f9f9" d="M 259.5,238.5 C 285.049,236.478 287.383,243.312 266.5,259C 261.441,261.599 256.108,262.599 250.5,262C 249.446,260.612 249.28,259.112 250,257.5C 253.196,251.109 256.362,244.776 259.5,238.5 Z"/></g>
<g><path style="opacity:1" fill="#45bd41" d="M 249.5,298.5 C 254.236,301.062 258.569,304.229 262.5,308C 257.794,326.224 247.794,329.557 232.5,318C 229.833,315.333 227.167,312.667 224.5,310C 226.807,310.642 229.141,311.642 231.5,313C 235.829,314.151 239.662,313.318 243,310.5C 244.925,306.313 247.092,302.313 249.5,298.5 Z"/></g>
<g><path style="opacity:1" fill="#45bd42" d="M 301.5,298.5 C 308.09,299.745 313.424,303.078 317.5,308.5C 310.665,315.15 302.665,319.983 293.5,323C 289.074,323.791 284.741,323.457 280.5,322C 275.47,318.816 270.804,315.149 266.5,311C 280.909,314.807 292.576,310.64 301.5,298.5 Z"/></g>
<g><path style="opacity:1" fill="#79cf73" d="M 345.5,302.5 C 344.5,302.5 343.5,302.5 342.5,302.5C 342.715,304.179 342.048,305.179 340.5,305.5C 341.831,301.186 343.165,296.852 344.5,292.5C 345.487,295.768 345.82,299.102 345.5,302.5 Z"/></g>
<g><path style="opacity:1" fill="#46be43" d="M 345.5,302.5 C 345.914,306.999 348.081,310.333 352,312.5C 351.624,320.194 347.457,323.694 339.5,323C 332.64,320.733 326.973,316.733 322.5,311C 327.515,311.934 332.515,311.601 337.5,310C 338.883,308.729 339.883,307.229 340.5,305.5C 342.048,305.179 342.715,304.179 342.5,302.5C 343.5,302.5 344.5,302.5 345.5,302.5 Z"/></g>
<g><path style="opacity:0.781" fill="#000000" d="M 189.5,353.5 C 190.497,353.47 191.164,353.97 191.5,355C 190.821,359.703 189.487,360.203 187.5,356.5C 186.28,355.289 185.113,355.289 184,356.5C 182.643,360.143 183.81,362.31 187.5,363C 185.866,363.494 184.199,363.66 182.5,363.5C 180.416,371.594 182.416,372.594 188.5,366.5C 189.645,367.776 189.645,369.109 188.5,370.5C 184.205,371.661 179.871,371.828 175.5,371C 177.887,370.024 179.054,368.191 179,365.5C 179.392,362.812 179.892,360.145 180.5,357.5C 180.182,356.353 179.516,355.519 178.5,355C 182.356,354.823 186.023,354.323 189.5,353.5 Z"/></g>
<g><path style="opacity:0.781" fill="#000000" d="M 233.5,353.5 C 234.497,353.47 235.164,353.97 235.5,355C 234.821,359.703 233.487,360.203 231.5,356.5C 230.28,355.289 229.113,355.289 228,356.5C 226.643,360.143 227.81,362.31 231.5,363C 229.866,363.494 228.199,363.66 226.5,363.5C 224.416,371.594 226.416,372.594 232.5,366.5C 233.645,367.776 233.645,369.109 232.5,370.5C 228.205,371.661 223.871,371.828 219.5,371C 221.887,370.024 223.054,368.191 223,365.5C 223.392,362.812 223.892,360.145 224.5,357.5C 224.182,356.353 223.516,355.519 222.5,355C 226.356,354.823 230.023,354.323 233.5,353.5 Z"/></g>
<g><path style="opacity:0.781" fill="#000000" d="M 427.5,353.5 C 428.497,353.47 429.164,353.97 429.5,355C 428.821,359.703 427.487,360.203 425.5,356.5C 424.28,355.289 423.113,355.289 422,356.5C 420.643,360.143 421.81,362.31 425.5,363C 423.866,363.494 422.199,363.66 420.5,363.5C 418.416,371.594 420.416,372.594 426.5,366.5C 427.645,367.776 427.645,369.109 426.5,370.5C 422.205,371.661 417.871,371.828 413.5,371C 415.887,370.024 417.054,368.191 417,365.5C 417.392,362.812 417.892,360.145 418.5,357.5C 418.182,356.353 417.516,355.519 416.5,355C 420.356,354.823 424.023,354.323 427.5,353.5 Z"/></g>
<g><path style="opacity:0.775" fill="#000000" d="M 126.5,355.5 C 130.634,354.515 134.968,354.182 139.5,354.5C 139.857,358.664 138.19,361.831 134.5,364C 135.676,366.686 137.343,369.019 139.5,371C 137.559,371.743 135.726,371.576 134,370.5C 133,368.5 132,366.5 131,364.5C 129.574,367.069 129.741,369.236 131.5,371C 128.833,371.667 126.167,371.667 123.5,371C 124.416,370.626 125.25,370.126 126,369.5C 126.706,365.636 127.539,361.803 128.5,358C 128.361,356.699 127.695,355.866 126.5,355.5 Z M 132.5,355.5 C 134.722,355.559 135.722,356.725 135.5,359C 133.815,363.407 132.482,363.407 131.5,359C 131.648,357.744 131.982,356.577 132.5,355.5 Z"/></g>
<g><path style="opacity:0.765" fill="#000000" d="M 144.5,355.5 C 146.966,354.366 149.633,354.199 152.5,355C 149.055,359.89 148.055,365.223 149.5,371C 147.167,371.667 144.833,371.667 142.5,371C 143.893,369.829 144.727,368.329 145,366.5C 145.446,363.657 145.946,360.824 146.5,358C 146.316,356.624 145.649,355.791 144.5,355.5 Z"/></g>
<g><path style="opacity:0.751" fill="#000000" d="M 155.5,355.5 C 160.65,354.349 165.984,354.183 171.5,355C 174.908,362.207 172.908,367.54 165.5,371C 161.167,371.667 156.833,371.667 152.5,371C 154.887,370.024 156.054,368.191 156,365.5C 156.392,362.812 156.892,360.145 157.5,357.5C 157.253,356.287 156.586,355.62 155.5,355.5 Z M 162.5,355.5 C 167.173,354.98 169.507,356.98 169.5,361.5C 169.107,369.003 165.44,371.503 158.5,369C 159.466,364.323 160.799,359.823 162.5,355.5 Z"/></g>
<g><path style="opacity:0.757" fill="#000000" d="M 204.5,355.5 C 208.634,354.515 212.968,354.182 217.5,354.5C 218.041,357.652 217.041,360.152 214.5,362C 218.311,365.514 217.645,368.514 212.5,371C 208.833,371.667 205.167,371.667 201.5,371C 202.416,370.626 203.25,370.126 204,369.5C 204.706,365.636 205.539,361.803 206.5,358C 206.361,356.699 205.695,355.866 204.5,355.5 Z M 210.5,355.5 C 215.871,358.136 215.537,360.136 209.5,361.5C 209.325,359.379 209.659,357.379 210.5,355.5 Z M 208.5,362.5 C 211.352,362.352 213.019,363.686 213.5,366.5C 212.392,369.896 210.392,370.729 207.5,369C 208.423,366.959 208.756,364.792 208.5,362.5 Z"/></g>
<g><path style="opacity:0.747" fill="#000000" d="M 238.5,355.5 C 240.288,354.378 242.288,354.211 244.5,355C 244.167,355.333 243.833,355.667 243.5,356C 244.525,358.071 245.358,360.238 246,362.5C 249.239,360.69 250.072,358.19 248.5,355C 250.833,354.333 253.167,354.333 255.5,355C 252.296,357.869 249.463,361.035 247,364.5C 246.242,366.769 246.409,368.936 247.5,371C 244.833,371.667 242.167,371.667 239.5,371C 240.416,370.626 241.25,370.126 242,369.5C 242.273,367.899 242.773,366.399 243.5,365C 242.48,361.396 240.813,358.23 238.5,355.5 Z"/></g>
<g><path style="opacity:0.661" fill="#000000" d="M 263.5,354.5 C 266.518,354.335 269.518,354.502 272.5,355C 276.536,359.87 276.203,364.537 271.5,369C 267.394,371.555 263.061,372.055 258.5,370.5C 255.342,367.537 254.842,364.204 257,360.5C 259.063,358.266 261.229,356.266 263.5,354.5 Z M 264.5,355.5 C 271.641,356.921 273.641,360.921 270.5,367.5C 267.167,371.5 263.833,371.5 260.5,367.5C 258.29,362.185 259.623,358.185 264.5,355.5 Z"/></g>
<g><path style="opacity:0.716" fill="#000000" d="M 280.5,355.5 C 282.288,354.378 284.288,354.211 286.5,355C 288.792,358.416 290.959,361.916 293,365.5C 293.579,363.351 294.079,361.185 294.5,359C 294.561,357.289 293.894,355.956 292.5,355C 294.833,354.333 297.167,354.333 299.5,355C 298.299,355.903 297.465,357.069 297,358.5C 296.045,362.902 294.879,367.236 293.5,371.5C 290.5,367.5 287.5,363.5 284.5,359.5C 283.62,362.111 282.954,364.778 282.5,367.5C 282.529,369.029 283.196,370.196 284.5,371C 282.167,371.667 279.833,371.667 277.5,371C 279.487,369.681 280.654,367.848 281,365.5C 281.392,362.812 281.892,360.145 282.5,357.5C 282.253,356.287 281.586,355.62 280.5,355.5 Z"/></g>
<g><path style="opacity:0.751" fill="#000000" d="M 302.5,355.5 C 307.65,354.349 312.984,354.183 318.5,355C 321.908,362.207 319.908,367.54 312.5,371C 308.167,371.667 303.833,371.667 299.5,371C 301.887,370.024 303.054,368.191 303,365.5C 303.392,362.812 303.892,360.145 304.5,357.5C 304.253,356.287 303.586,355.62 302.5,355.5 Z M 309.5,355.5 C 314.173,354.98 316.507,356.98 316.5,361.5C 316.107,369.003 312.44,371.503 305.5,369C 306.466,364.323 307.799,359.823 309.5,355.5 Z"/></g>
<g><path style="opacity:0.757" fill="#000000" d="M 334.5,355.5 C 338.634,354.515 342.968,354.182 347.5,354.5C 348.041,357.652 347.041,360.152 344.5,362C 348.311,365.514 347.645,368.514 342.5,371C 338.833,371.667 335.167,371.667 331.5,371C 332.416,370.626 333.25,370.126 334,369.5C 334.706,365.636 335.539,361.803 336.5,358C 336.361,356.699 335.695,355.866 334.5,355.5 Z M 340.5,355.5 C 345.871,358.136 345.537,360.136 339.5,361.5C 339.325,359.379 339.659,357.379 340.5,355.5 Z M 338.5,362.5 C 341.352,362.352 343.019,363.686 343.5,366.5C 342.392,369.896 340.392,370.729 337.5,369C 338.423,366.959 338.756,364.792 338.5,362.5 Z"/></g>
<g><path style="opacity:0.663" fill="#000000" d="M 359.5,354.5 C 368.5,353.327 372,356.993 370,365.5C 364.789,372.111 358.789,373.111 352,368.5C 350.578,361.676 353.078,357.009 359.5,354.5 Z M 360.5,355.5 C 367.388,357.085 369.222,361.085 366,367.5C 360.404,371.799 356.571,370.466 354.5,363.5C 354.899,361.803 355.399,360.137 356,358.5C 357.652,357.601 359.152,356.601 360.5,355.5 Z"/></g>
<g><path style="opacity:0.755" fill="#000000" d="M 376.5,355.5 C 380.566,354.178 384.733,354.178 389,355.5C 389.244,359.175 387.744,362.008 384.5,364C 385.376,366.879 387.042,369.213 389.5,371C 387.421,371.808 385.421,371.641 383.5,370.5C 382.752,368.668 381.752,367.001 380.5,365.5C 379.107,367.674 379.44,369.507 381.5,371C 378.833,371.667 376.167,371.667 373.5,371C 374.701,370.097 375.535,368.931 376,367.5C 376.5,364.5 377,361.5 377.5,358.5C 377.48,357.274 377.147,356.274 376.5,355.5 Z M 382.5,355.5 C 386.481,357.793 386.481,360.127 382.5,362.5C 381.5,362.167 380.833,361.5 380.5,360.5C 381.174,358.805 381.841,357.138 382.5,355.5 Z"/></g>
<g><path style="opacity:0.762" fill="#000000" d="M 394.5,355.5 C 399.704,354.194 405.037,354.194 410.5,355.5C 413.192,362.237 411.192,367.403 404.5,371C 400.167,371.667 395.833,371.667 391.5,371C 392.667,370.5 393.5,369.667 394,368.5C 394.554,365.342 395.054,362.175 395.5,359C 395.486,357.615 395.152,356.449 394.5,355.5 Z M 401.5,355.5 C 408.454,356.338 410.287,360.005 407,366.5C 405.499,368.584 403.499,369.917 401,370.5C 399.118,370.312 397.952,369.312 397.5,367.5C 397.968,363.088 399.301,359.088 401.5,355.5 Z"/></g>
<g><path style="opacity:0.775" fill="#000000" d="M 432.5,355.5 C 436.634,354.515 440.968,354.182 445.5,354.5C 445.857,358.664 444.19,361.831 440.5,364C 441.676,366.686 443.343,369.019 445.5,371C 443.559,371.743 441.726,371.576 440,370.5C 439,368.5 438,366.5 437,364.5C 435.574,367.069 435.741,369.236 437.5,371C 434.833,371.667 432.167,371.667 429.5,371C 430.416,370.626 431.25,370.126 432,369.5C 432.706,365.636 433.539,361.803 434.5,358C 434.361,356.699 433.695,355.866 432.5,355.5 Z M 438.5,355.5 C 440.722,355.559 441.722,356.725 441.5,359C 439.815,363.407 438.482,363.407 437.5,359C 437.648,357.744 437.982,356.577 438.5,355.5 Z"/></g>
<g><path style="opacity:0.683" fill="#000000" d="M 454.5,354.5 C 456.833,354.5 459.167,354.5 461.5,354.5C 461.659,360.386 460.326,360.886 457.5,356C 454.909,355.699 454.075,356.866 455,359.5C 457.954,360.782 459.787,362.948 460.5,366C 459.618,369.872 457.118,371.705 453,371.5C 448.186,371.229 447.352,369.229 450.5,365.5C 451.132,367.737 452.465,369.403 454.5,370.5C 456.946,369.573 457.779,367.906 457,365.5C 454.357,364.024 452.19,362.024 450.5,359.5C 451.16,357.185 452.493,355.519 454.5,354.5 Z"/></g>
</svg>
